<svg width="172" height="29" viewBox="0 0 172 29" fill="none" xmlns="http://www.w3.org/2000/svg">
<g clip-path="url(#clip0_558_3096)">
<path d="M17.6412 5.42947L13.1965 6.8324C12.599 5.17091 11.3341 4.33905 9.40169 4.3368C7.33578 4.3368 6.30282 4.96857 6.30282 6.2321C6.30441 6.47793 6.35947 6.72028 6.46397 6.94143C6.56848 7.16258 6.71979 7.35693 6.90684 7.51025C7.29091 7.8475 8.16411 8.15776 9.53299 8.41744C11.809 8.84911 13.4733 9.2864 14.526 9.72931C15.5883 10.1761 16.5113 10.9132 17.1948 11.8607C17.903 12.8005 18.2844 13.9569 18.2781 15.1454C18.2781 17.0452 17.5034 18.6876 15.9539 20.0725C14.4045 21.4575 12.1066 22.15 9.06029 22.15C6.77553 22.15 4.82999 21.6598 3.22366 20.6796C2.43129 20.2102 1.7388 19.582 1.1873 18.8324C0.635796 18.0827 0.236523 17.2269 0.0131836 16.3157L4.84859 15.2837C5.39352 17.242 6.90465 18.2222 9.38199 18.2245C10.5769 18.2245 11.4687 18.0064 12.0574 17.5702C12.3186 17.4046 12.5358 17.1749 12.6893 16.9018C12.8429 16.6286 12.928 16.3207 12.9371 16.0054C12.9435 15.7146 12.8723 15.4276 12.731 15.1755C12.5898 14.9234 12.3841 14.7159 12.1362 14.5755C11.6044 14.2382 10.5769 13.9201 9.05372 13.6211C6.19778 13.0658 4.16907 12.3081 2.96761 11.3481C1.76614 10.3881 1.16431 8.98513 1.16213 7.13929C1.15391 6.23618 1.34383 5.34277 1.71777 4.5254C2.09171 3.70803 2.64007 2.9877 3.32214 2.41789C4.77309 1.13637 6.72957 0.495605 9.19159 0.495605C13.5773 0.495605 16.3938 2.14023 17.6412 5.42947Z" fill="black"/>
<path d="M26.1532 0.812988V8.39083C27.0461 6.76757 28.5321 5.95594 30.6111 5.95594C31.6029 5.92223 32.5861 6.1547 33.4638 6.63042C34.1918 7.01671 34.779 7.63413 35.138 8.39083C35.4662 9.11253 35.6205 10.1614 35.6205 11.5474V21.8165H30.7424V13.0482C30.766 12.326 30.722 11.6033 30.6111 10.8898C30.5293 10.503 30.3193 10.1573 30.017 9.9118C29.6862 9.64548 29.2749 9.50701 28.8549 9.52059C28.1969 9.539 27.5624 9.77561 27.0461 10.1951C26.452 10.6402 26.1532 11.5946 26.1532 13.0515V21.8198H21.4294V0.812988H26.1532Z" fill="black"/>
<path d="M46.4665 5.95557C48.9811 5.95557 50.9419 6.7301 52.3491 8.27917C53.7563 9.82824 54.461 11.7651 54.4632 14.0899C54.4906 15.148 54.3103 16.201 53.933 17.186C53.5557 18.171 52.9891 19.0678 52.267 19.823C50.8051 21.3586 48.8607 22.1264 46.4337 22.1264C44.0833 22.1264 42.2034 21.3664 40.794 19.8466C39.3847 18.3268 38.6811 16.3854 38.6833 14.0224C38.6398 12.5569 38.969 11.1051 39.6385 9.81025C40.2674 8.66435 41.1715 7.70301 42.2647 7.01788C43.3677 6.30967 44.7683 5.95557 46.4665 5.95557ZM46.5978 8.95703C46.1956 8.93169 45.7936 9.01115 45.4292 9.18801C45.0648 9.36488 44.7497 9.63343 44.5133 9.96875C44.0428 10.6432 43.8086 11.9798 43.8108 13.9786C43.8108 15.8154 44.0297 17.134 44.4674 17.9344C44.6662 18.3197 44.968 18.6386 45.3373 18.8537C45.7066 19.0688 46.128 19.1711 46.5519 19.1485C46.9404 19.1585 47.3254 19.0717 47.6742 18.8955C48.0229 18.7193 48.3249 18.459 48.5543 18.1368C49.0664 17.4623 49.3192 16.1538 49.3192 14.2315C49.3192 12.1901 49.1003 10.8051 48.6626 10.0767C48.4512 9.7207 48.1511 9.42922 47.7933 9.23237C47.4355 9.03553 47.0329 8.94047 46.6274 8.95703H46.5978Z" fill="black"/>
<path d="M57.5356 27.0772V6.27942H62.01V8.55581C62.8372 6.82239 64.286 5.95567 66.3562 5.95567C67.1883 5.93267 68.0147 6.10266 68.774 6.45297C69.5333 6.80329 70.2059 7.32494 70.7419 7.97913C71.8821 9.3281 72.4511 11.2909 72.4489 13.8674C72.4489 16.6058 71.8745 18.6708 70.7255 20.0625C70.1832 20.7396 69.497 21.2798 68.7196 21.6417C67.9422 22.0036 67.0944 22.1775 66.2413 22.1501C64.3812 22.1501 63.0528 21.4677 62.2562 20.103V27.0772H57.5356ZM62.2562 15.0208C62.2202 15.7873 62.2921 16.5551 62.4695 17.3005C62.6457 17.7653 62.9605 18.1608 63.369 18.4303C63.8002 18.7556 64.321 18.9316 64.8561 18.9328C65.2072 18.9237 65.5517 18.832 65.8629 18.6648C66.1742 18.4976 66.444 18.2593 66.6517 17.9683C67.1725 17.3275 67.433 15.9144 67.433 13.7291C67.433 10.6602 66.5729 9.12575 64.8528 9.12575C64.5179 9.13124 64.1876 9.20638 63.8818 9.34665C63.576 9.48692 63.3011 9.68941 63.0736 9.94188C62.5374 10.4837 62.2704 11.4078 62.2726 12.714L62.2562 15.0208Z" fill="black"/>
<path d="M91.1834 6.17519L86.4596 7.92548C85.8271 5.85256 84.4823 4.8161 82.4252 4.8161C80.2367 4.8161 79.1425 5.603 79.1425 7.1768C79.1356 7.47166 79.1867 7.76492 79.2927 8.03902C79.3988 8.31311 79.5576 8.5624 79.7596 8.77196C80.1699 9.207 81.0989 9.58808 82.54 9.90846C84.9474 10.4503 86.7167 10.9966 87.8482 11.5475C89.0226 12.1366 90.0064 13.0617 90.6811 14.2117C91.4463 15.4372 91.8436 16.8669 91.8235 18.3227C91.8352 19.4666 91.6223 20.6011 91.1976 21.6586C90.7729 22.7161 90.1451 23.6747 89.3516 24.4774C87.7037 26.2085 85.2614 27.0719 82.0247 27.0674C79.8285 27.1361 77.6667 26.4957 75.8434 25.2361C74.1364 24.0131 73.0115 22.1976 72.4688 19.7897L77.6094 18.4947C78.1828 20.943 79.7826 22.1729 82.4087 22.1841C83.6791 22.1841 84.6246 21.9109 85.2516 21.3646C85.5413 21.1332 85.776 20.8372 85.9381 20.4989C86.1002 20.1606 86.1853 19.789 86.1871 19.412C86.2023 19.0648 86.1324 18.7192 85.9838 18.4069C85.8353 18.0946 85.6129 17.8257 85.3369 17.6246C84.7679 17.1997 83.6737 16.8006 82.0542 16.4274C79.0385 15.7349 76.8884 14.7895 75.6037 13.5912C74.3191 12.3928 73.6779 10.638 73.6801 8.3268C73.6551 7.23411 73.8459 6.14756 74.2408 5.13267C74.6357 4.11778 75.2267 3.19557 75.9779 2.42168C77.5099 0.816401 79.5889 0.0148875 82.2151 0.0171358C86.8634 0.00589434 89.8528 2.05858 91.1834 6.17519Z" fill="#1574FF"/>
<path d="M118.584 21.8263H113.716V13.2199C113.74 12.4311 113.701 11.6416 113.601 10.8592C113.522 10.4887 113.308 10.163 113.003 9.94866C112.609 9.68636 112.143 9.55997 111.674 9.58781C111.088 9.60201 110.518 9.78934 110.033 10.1274C109.479 10.4849 109.201 11.5157 109.199 13.2199V21.8263H104.337V13.2199C104.337 11.9789 104.278 11.1762 104.16 10.812C104.039 10.4449 103.799 10.1317 103.48 9.92506C103.099 9.68882 102.658 9.57165 102.213 9.58781C101.377 9.58781 100.755 9.83625 100.345 10.3331C99.9383 10.8289 99.7348 11.7934 99.7315 13.2199V21.8263H95.011V6.27946H99.5838V8.64016C100.358 6.84153 101.908 5.94222 104.232 5.94222C106.335 5.94222 107.857 6.84153 108.798 8.64016C109.711 6.84153 111.306 5.94222 113.584 5.94222C114.557 5.91503 115.521 6.13148 116.394 6.57286C117.111 6.92547 117.7 7.50145 118.078 8.21861C118.407 8.89309 118.584 10.0633 118.584 11.7124V21.8263Z" fill="black"/>
<path d="M136.98 21.8265H132.256C132.086 21.0282 132.01 20.2119 132.03 19.3949C131.203 20.5011 130.379 21.2374 129.558 21.6039C128.672 21.9813 127.72 22.1673 126.761 22.1502C125.214 22.1502 123.965 21.7545 123.016 20.9631C122.551 20.584 122.18 20.098 121.933 19.5444C121.685 18.9907 121.568 18.385 121.591 17.7762C121.585 16.8096 121.876 15.8657 122.421 15.0782C122.975 14.2554 123.867 13.6112 125.097 13.1458C126.327 12.6804 128.567 12.3342 131.816 12.1071V11.2202C131.816 9.70933 131.019 8.95503 129.423 8.95728C127.716 8.95728 126.766 9.71158 126.571 11.2202L122.08 10.8189C122.181 10.0116 122.479 9.24374 122.947 8.58684C123.415 7.92994 124.037 7.40537 124.755 7.06198C126.329 6.30359 128.05 5.92521 129.788 5.95582C130.85 5.95407 131.909 6.08084 132.942 6.33353C133.789 6.50693 134.583 6.88368 135.26 7.43294C135.759 7.84589 136.147 8.38351 136.386 8.99438C136.583 9.54521 136.681 10.503 136.681 11.8677V18.9161C136.685 20.2718 136.783 21.2397 136.98 21.8265ZM131.816 14.3768C128.422 14.6938 126.725 15.6628 126.725 17.2838C126.72 17.8076 126.913 18.3129 127.263 18.6935C127.463 18.8983 127.702 19.0572 127.966 19.1595C128.23 19.2618 128.512 19.3053 128.793 19.287C129.204 19.2938 129.611 19.2065 129.984 19.0315C130.358 18.8565 130.689 18.5982 130.953 18.2753C131.536 17.5835 131.842 16.6906 131.81 15.7763L131.816 14.3768Z" fill="black"/>
<path d="M145.437 21.8265H140.703V6.27958H145.164V9.17312C145.849 7.01702 147.036 5.93896 148.726 5.93896C148.965 5.93896 149.258 5.95583 149.606 5.98618V10.512C148.818 10.4754 148.032 10.623 147.308 10.9436C146.704 11.2904 146.231 11.8339 145.962 12.4882C145.572 13.4398 145.393 14.4684 145.437 15.4998V21.8265Z" fill="black"/>
<path d="M158.479 9.85098V16.4238C158.479 17.2433 158.607 17.793 158.869 18.0696C159.132 18.3461 159.739 18.4743 160.704 18.4743C161.142 18.4743 161.657 18.454 162.25 18.4136V21.8265C161.241 22.0097 160.221 22.1224 159.197 22.1637C157.171 22.1637 155.733 21.7972 154.884 21.0643C154.035 20.3314 153.61 19.0049 153.61 17.0848V9.85098H150.984V6.27958H153.876L154.27 1.6897L158.469 1.38281V6.27958H162.014V9.85098H158.479Z" fill="black"/>
<path opacity="0.1" d="M116.545 28.1058C147.172 28.1058 172 21.8141 172 14.0529C172 6.2917 147.172 0 116.545 0C85.9187 0 61.0908 6.2917 61.0908 14.0529C61.0908 21.8141 85.9187 28.1058 116.545 28.1058Z" fill="#1574FF"/>
<path d="M78.01 14.8522L86.7387 11.0684" stroke="black" stroke-width="0.5" stroke-miterlimit="10"/>
</g>
<defs>
<clipPath id="clip0_558_3096">
<rect width="172" height="28.1058" fill="white"/>
</clipPath>
</defs>
</svg>
